# xmcd
#
# Track frame offsets: 
#        150
#        24060
#        50086
#        73137
#        91828
#        122577
#        172487
#        183171
#        210030
#        220892
#        247951
#        262341
#        280341
#        293095
#
# Disc length: 4279 seconds
#
# Revision: 0
# Processed by: cddbd v1.5.2PL0 Copyright (c) Steve Scherf et al.
# Submitted via: ExactAudioCopy v0.95b4
#
DISCID=d010b50e
DTITLE=Sudden Infant - Psychotic Einzelkind
DYEAR=2008
DGENRE=Noise
TTITLE0=Somniphobia
TTITLE1=Deep Cuts
TTITLE2=Boy in a Wheelchair
TTITLE3=Tandoori Chicken Scooter III
TTITLE4=Bamblood
TTITLE5=Slomono
TTITLE6=Beautiful Tile
TTITLE7=Head vs Wall
TTITLE8=Trees are my Friends
TTITLE9=Dies Irae
TTITLE10=Zipper Ripper
TTITLE11=Slomono (Z'ev Remix)
TTITLE12=Tandoori Chicken Scooter III (Lasse Marhaug Remix)
TTITLE13=Somniphobia (Thurston Moore Remix)
EXTD=
EXTT0=
EXTT1=
EXTT2=
EXTT3=
EXTT4=
EXTT5=
EXTT6=
EXTT7=
EXTT8=
EXTT9=
EXTT10=
EXTT11=
EXTT12=
EXTT13=
PLAYORDER=
